<svg xmlns="http://www.w3.org/2000/svg" viewBox="0 0 100 100" width="160" height="160">
  <rect width="100" height="100" fill="#fff" stroke="#d4c4b8" stroke-width="2" rx="8"/>
  <!-- QR-like pattern (fictitious) -->
  <g fill="#2a1a14">
    <rect x="8" y="8" width="12" height="12"/>
    <rect x="24" y="8" width="4" height="4"/>
    <rect x="32" y="8" width="4" height="4"/>
    <rect x="40" y="8" width="12" height="12"/>
    <rect x="56" y="8" width="4" height="4"/>
    <rect x="64" y="8" width="8" height="8"/>
    <rect x="76" y="8" width="12" height="12"/>
    <rect x="8" y="24" width="4" height="4"/>
    <rect x="16" y="24" width="8" height="8"/>
    <rect x="28" y="24" width="4" height="4"/>
    <rect x="40" y="24" width="4" height="4"/>
    <rect x="52" y="24" width="8" height="4"/>
    <rect x="64" y="24" width="4" height="4"/>
    <rect x="76" y="24" width="4" height="4"/>
    <rect x="8" y="40" width="8" height="8"/>
    <rect x="20" y="40" width="4" height="4"/>
    <rect x="28" y="40" width="12" height="12"/>
    <rect x="44" y="40" width="4" height="4"/>
    <rect x="52" y="40" width="4" height="4"/>
    <rect x="64" y="40" width="8" height="8"/>
    <rect x="76" y="40" width="4" height="4"/>
    <rect x="8" y="56" width="4" height="4"/>
    <rect x="16" y="56" width="4" height="4"/>
    <rect x="24" y="56" width="8" height="8"/>
    <rect x="36" y="56" width="4" height="4"/>
    <rect x="44" y="56" width="8" height="4"/>
    <rect x="56" y="56" width="12" height="12"/>
    <rect x="72" y="56" width="4" height="4"/>
    <rect x="80" y="56" width="4" height="4"/>
    <rect x="8" y="72" width="12" height="12"/>
    <rect x="24" y="72" width="4" height="4"/>
    <rect x="32" y="72" width="8" height="8"/>
    <rect x="44" y="72" width="4" height="4"/>
    <rect x="52" y="72" width="4" height="4"/>
    <rect x="64" y="72" width="4" height="4"/>
    <rect x="76" y="72" width="12" height="12"/>
  </g>
</svg>
